<svg width="117" height="117" viewBox="0 0 117 117" fill="none" xmlns="http://www.w3.org/2000/svg">
<rect width="117" height="117" rx="58.5" fill="#FFFCEA"/>
<rect opacity="0.2" x="14" y="15" width="88" height="88" rx="44" stroke="#665D46" stroke-width="2"/>
<path d="M56.6024 50.0663V48.1205C56.6024 45.2925 58.895 43 61.7229 43V43C64.5509 43 66.8434 45.2925 66.8434 48.1205V48.4277C66.8434 51.4253 64.4133 53.8554 61.4157 53.8554H36.4277" stroke="#665D46" stroke-width="2"/>
<path d="M62.747 69.9337V71.8795C62.747 74.7075 65.0395 77 67.8674 77V77C70.6954 77 72.9879 74.7075 72.9879 71.8795V71.5723C72.9879 68.5747 70.5579 66.1446 67.5602 66.1446H42.5723" stroke="#665D46" stroke-width="2"/>
<path d="M77.1867 56.4169V54.4711C77.1867 51.6431 79.4793 49.3506 82.3072 49.3506V49.3506C85.1352 49.3506 87.4277 51.6431 87.4277 54.4711V54.7783C87.4277 57.7759 84.9976 60.206 82 60.206H31" stroke="#665D46" stroke-width="2"/>
</svg>
