<svg width="117" height="117" viewBox="0 0 117 117" fill="none" xmlns="http://www.w3.org/2000/svg">
<rect width="117" height="117" rx="58.5" fill="#FFFCEA"/>
<rect opacity="0.2" x="14" y="15" width="88" height="88" rx="44" stroke="#665D46" stroke-width="2"/>
<path d="M57.5583 43.3069L57.9245 43.04L58.2931 43.3144C68.6128 50.9942 68.4261 66.5112 57.9245 73.9405C47.2932 66.5761 47.1061 50.9234 57.5583 43.3069Z" stroke="#665D46" stroke-width="2"/>
<path d="M36.3019 52.5453L36.3721 52.0976L36.8267 52.0309C49.5544 50.1643 60.3945 61.2685 58.2221 73.9475C45.4971 76.2576 34.2967 65.3218 36.3019 52.5453Z" stroke="#665D46" stroke-width="2"/>
<path d="M79.485 52.5453L79.4148 52.0976L78.9601 52.0309C66.2325 50.1643 55.3924 61.2685 57.5648 73.9475C70.2897 76.2576 81.4902 65.3218 79.485 52.5453Z" stroke="#665D46" stroke-width="2"/>
<path d="M45.3767 52.8208L45.6967 51.3275C46.1655 49.1397 48.3378 47.7619 50.5168 48.2703L52.4173 48.7137" stroke="#665D46" stroke-width="2"/>
<path d="M70.4099 52.8208L70.0899 51.3275C69.6211 49.1397 67.4488 47.7619 65.2698 48.2703L63.3693 48.7137" stroke="#665D46" stroke-width="2"/>
</svg>
