<svg width="39" height="39" viewBox="0 0 39 39" fill="none" xmlns="http://www.w3.org/2000/svg">
<path d="M19.625 27.723C24.0974 27.723 27.7229 24.0975 27.7229 19.6252C27.7229 15.1529 24.0974 11.5273 19.625 11.5273C15.1527 11.5273 11.5272 15.1529 11.5272 19.6252C11.5272 24.0975 15.1527 27.723 19.625 27.723Z" stroke="#F9F6E5" stroke-width="1.5" stroke-linecap="round" stroke-linejoin="round"/>
<path d="M28.5326 1H10.7174C5.35063 1 1 5.35063 1 10.7174V28.5326C1 33.8994 5.35063 38.25 10.7174 38.25H28.5326C33.8994 38.25 38.25 33.8994 38.25 28.5326V10.7174C38.25 5.35063 33.8994 1 28.5326 1Z" stroke="#F9F6E5" stroke-width="1.5" stroke-linecap="round" stroke-linejoin="round"/>
<path d="M31.6766 9.09868C31.6766 9.94063 30.9941 10.6231 30.1521 10.6231C29.3101 10.6231 28.6277 9.94063 28.6277 9.09868C28.6277 8.25672 29.3101 7.57422 30.1521 7.57422C30.9941 7.57422 31.6766 8.25672 31.6766 9.09868Z" fill="#F9F6E5" stroke="#F9F6E5"/>
</svg>
