<svg width="44" height="44" viewBox="0 0 44 44" fill="none" xmlns="http://www.w3.org/2000/svg">
<g clip-path="url(#clip0_787_37)">
<path d="M21.9753 0.242188C9.99139 0.242188 0.241699 9.99188 0.241699 21.9758C0.241699 33.9597 9.99139 43.7094 21.9753 43.7094C33.9592 43.7094 43.7089 33.9597 43.7089 21.9758C43.7089 9.99188 33.9592 0.242188 21.9753 0.242188ZM1.21971 22.4587H10.1532C10.1938 25.8608 10.6613 29.0711 11.462 31.9182H3.74757C2.20207 29.0962 1.29843 25.8777 1.21971 22.4587ZM22.4583 11.0674V1.23131C26.1549 1.54234 29.3763 5.40126 31.2135 11.0674H22.4583ZM31.5096 12.0334C32.3181 14.8549 32.7904 18.0734 32.8315 21.4928H22.4583V12.0334H31.5096ZM21.4923 11.0674H12.7371C14.5743 5.40126 17.7957 1.54234 21.4923 1.23131V11.0674ZM21.4923 12.0334V21.4928H11.1191C11.1602 18.0739 11.633 14.8554 12.441 12.0334H21.4923ZM10.1532 21.4928H1.21971C1.29843 18.0739 2.20207 14.8554 3.74709 12.0334H11.462C10.6613 14.8805 10.1938 18.0908 10.1532 21.4928ZM11.1191 22.4587H21.4923V31.9182H12.441C11.6325 29.0962 11.1602 25.8777 11.1191 22.4587ZM21.4923 32.8841V42.7203C17.7957 42.4092 14.5743 38.5503 12.7371 32.8841H21.4923ZM22.4583 32.8841H31.2135C29.3763 38.5503 26.1549 42.4092 22.4583 42.7203V32.8841ZM22.4583 31.9182V22.4587H32.8315C32.7904 25.8777 32.3176 29.0962 31.5096 31.9182H22.4583ZM33.7969 22.4587H42.7304C42.6517 25.8777 41.748 29.0962 40.2025 31.9182H32.4881C33.2888 29.0711 33.7563 25.8608 33.7969 22.4587ZM33.7969 21.4928C33.7563 18.0908 33.2888 14.8805 32.4881 12.0334H40.203C41.7485 14.8549 42.6522 18.0734 42.7304 21.4928H33.7969ZM39.6375 11.0674H32.1997C30.8349 6.76516 28.691 3.39742 26.124 1.62493C31.8182 2.78405 36.6711 6.28219 39.6375 11.0674ZM17.8271 1.62493C15.2601 3.39742 13.1157 6.76516 11.7508 11.0674H4.31313C7.27952 6.28219 12.1319 2.78405 17.8271 1.62493ZM4.31313 32.8841H11.7508C13.1157 37.1864 15.2596 40.5541 17.8271 42.3266C12.1319 41.1675 7.27952 37.6694 4.31313 32.8841ZM26.1235 42.3266C28.6905 40.5541 30.8344 37.1864 32.1993 32.8841H39.637C36.6711 37.6694 31.8182 41.1675 26.1235 42.3266Z" fill="#F9F6E5"/>
</g>
<defs>
<clipPath id="clip0_787_37">
<rect width="44" height="44" fill="white"/>
</clipPath>
</defs>
</svg>
