<svg width="33" height="32" viewBox="0 0 33 32" fill="none" xmlns="http://www.w3.org/2000/svg">
<g clip-path="url(#clip0_46_172)">
<path d="M20.0074 11.9606C19.3311 11.9606 18.8298 12.1311 18.4377 12.3469C18.3751 12.1234 18.1681 11.9599 17.9248 12.0085H14.9468C14.6524 11.9593 14.4142 12.1981 14.5049 12.5072V23.4843C14.4142 23.764 14.6524 24.0035 14.9468 23.9831H17.9248C18.2192 24.0029 18.4575 23.7634 18.4575 23.469L18.4562 16.8354C18.4549 16.8322 18.444 16.5147 18.6446 16.2963C18.8055 16.1226 19.0814 16.0338 19.464 16.0338C20.1007 16.0338 20.3842 16.2944 20.4896 16.8769V23.469C20.3849 23.7634 20.6231 24.0029 20.9175 23.9831H24.0558C24.3502 24.0029 24.5885 23.7634 24.4831 23.469V16.6553C24.5878 13.1906 22.1201 11.9599 20.0068 11.9599L20.0074 11.9606ZM23.5232 22.9855H21.4514V16.8775C21.4514 15.6992 20.6902 14.9686 19.4659 14.9686C18.7736 14.9686 18.2346 15.1723 17.8635 15.5734C17.3475 16.1322 17.3877 16.8405 17.4982 16.9982V22.9855H15.4807V13.0265H17.3928V13.3618C17.3928 13.5642 17.5078 13.7507 17.6904 13.8395C17.8731 13.9282 18.0896 13.9065 18.2512 13.7839L18.391 13.676C18.7953 13.3579 19.2136 13.0271 20.0094 13.0271C20.8339 13.0271 23.5251 13.2896 23.5251 16.6565V22.9849L23.5232 22.9855ZM11.5109 6.98487C10.3914 6.98487 9.48128 7.89494 9.48128 9.01449C9.48128 10.134 10.3914 11.0441 11.5109 11.0441C12.6304 11.0441 13.5405 10.134 13.5405 9.01449C13.5405 7.89494 12.6304 6.98487 11.5109 6.98487ZM11.5109 9.97884C10.9802 9.97884 10.5472 9.54584 10.5472 9.01513C10.5472 8.48441 10.9802 8.05141 11.5109 8.05141C12.0416 8.05141 12.4746 8.48441 12.4746 9.01513C12.4746 9.54584 12.0416 9.97884 11.5109 9.97884ZM12.9357 11.9593H9.97368C9.67926 11.9593 9.44104 12.1975 9.51449 12.5072V23.4843C9.44041 23.764 9.67926 24.0035 9.97368 23.9831H12.9357C13.2301 24.0029 13.4683 23.7634 13.4683 23.469V12.4919C13.4683 12.1975 13.2301 11.9593 12.9357 11.9593ZM12.5085 22.9855H10.5069V13.0265H12.5085V22.9855ZM16.5 0C7.67647 0 0.5 7.1771 0.5 16C0.5 24.8229 7.6771 32 16.5 32C25.3229 32 32.5 24.8229 32.5 16C32.5 7.1771 25.3229 0 16.5 0ZM16.5 30.9341C8.2653 30.9341 1.5659 24.2341 1.5659 16C1.5659 7.76594 8.26594 1.0659 16.5 1.0659C24.7341 1.0659 31.4341 7.76594 31.4341 16C31.4341 24.2341 24.7341 30.9341 16.5 30.9341Z" fill="#F9F6E5"/>
</g>
<defs>
<clipPath id="clip0_46_172">
<rect width="32" height="32" fill="white" transform="translate(0.5)"/>
</clipPath>
</defs>
</svg>
