<svg width="36" height="36" viewBox="0 0 36 36" fill="none" xmlns="http://www.w3.org/2000/svg">
<path d="M0 17.8276C0 7.98169 7.98169 0 17.8276 0V0C27.6735 0 35.6552 7.98169 35.6552 17.8276V17.8276C35.6552 27.6735 27.6735 35.6552 17.8276 35.6552V35.6552C7.98169 35.6552 0 27.6735 0 17.8276V17.8276Z" fill="#C4AB9E"/>
<path d="M9.71739 22.8276H8.16L11.6594 13.1034H13.3544L16.8538 22.8276H15.2964L12.5473 14.8697H12.4713L9.71739 22.8276ZM9.97853 19.0196H15.0305V20.2541H9.97853V19.0196ZM21.4452 22.8276H18.2972V13.1034H21.5449C22.4977 13.1034 23.316 13.2981 23.9997 13.6875C24.6834 14.0736 25.2073 14.6292 25.5713 15.354C25.9385 16.0758 26.1221 16.9415 26.1221 17.9513C26.1221 18.9642 25.9369 19.8347 25.5666 20.5627C25.1994 21.2908 24.6676 21.851 23.9712 22.2436C23.2748 22.6329 22.4328 22.8276 21.4452 22.8276ZM19.7644 21.5456H21.3645C22.1052 21.5456 22.7209 21.4063 23.2115 21.1278C23.7022 20.846 24.0694 20.4393 24.3131 19.9075C24.5568 19.3725 24.6787 18.7205 24.6787 17.9513C24.6787 17.1884 24.5568 16.5411 24.3131 16.0093C24.0725 15.4775 23.7132 15.0739 23.2353 14.7985C22.7573 14.5231 22.1638 14.3854 21.4547 14.3854H19.7644V21.5456Z" fill="white"/>
</svg>
