<svg width="12" height="12" viewBox="0 0 12 12" fill="none" xmlns="http://www.w3.org/2000/svg">
<g clip-path="url(#clip0_441_1178)">
<path d="M5.40984 6.1469L4.59485 5.34597C4.4918 5.24292 4.36309 5.1914 4.20871 5.1914C4.05433 5.1914 3.92075 5.24761 3.80796 5.36002C3.70492 5.46306 3.6534 5.59421 3.6534 5.75346C3.6534 5.91271 3.70492 6.04386 3.80796 6.1469L5.01639 7.35534C5.12881 7.46775 5.25995 7.52395 5.40984 7.52395C5.55972 7.52395 5.69087 7.46775 5.80328 7.35534L8.19204 4.96658C8.30445 4.85416 8.35822 4.72302 8.35335 4.57313C8.34848 4.42325 8.29471 4.2921 8.19204 4.17969C8.07963 4.06728 7.94623 4.00882 7.79185 4.00433C7.63747 3.99983 7.50389 4.0536 7.3911 4.16564L5.40984 6.1469ZM3.83607 11.2336L3.02108 9.85651L1.47541 9.51927C1.33489 9.49117 1.22248 9.41866 1.13817 9.30175C1.05386 9.18484 1.02108 9.05594 1.03981 8.91505L1.19438 7.32723L0.140515 6.1188C0.0468384 6.01576 0 5.89398 0 5.75346C0 5.61295 0.0468384 5.49117 0.140515 5.38812L1.19438 4.17969L1.03981 2.59187C1.02108 2.45135 1.05386 2.32245 1.13817 2.20517C1.22248 2.08789 1.33489 2.01538 1.47541 1.98765L3.02108 1.65042L3.83607 0.273368C3.91101 0.151588 4.01405 0.0695274 4.1452 0.0271854C4.27635 -0.0151565 4.40749 -0.00803705 4.53864 0.0485437L6 0.666811L7.46136 0.0485437C7.59251 -0.00766234 7.72365 -0.0147818 7.8548 0.0271854C7.98595 0.0691527 8.08899 0.151214 8.16394 0.273368L8.97892 1.65042L10.5246 1.98765C10.6651 2.01576 10.7775 2.08845 10.8618 2.20573C10.9461 2.32302 10.9789 2.45173 10.9602 2.59187L10.8056 4.17969L11.8595 5.38812C11.9532 5.49117 12 5.61295 12 5.75346C12 5.89398 11.9532 6.01576 11.8595 6.1188L10.8056 7.32723L10.9602 8.91505C10.9789 9.05557 10.9461 9.18447 10.8618 9.30175C10.7775 9.41904 10.6651 9.49154 10.5246 9.51927L8.97892 9.85651L8.16394 11.2336C8.08899 11.3553 7.98595 11.4374 7.8548 11.4797C7.72365 11.5221 7.59251 11.515 7.46136 11.4584L6 10.8401L4.53864 11.4584C4.40749 11.5146 4.27635 11.5217 4.1452 11.4797C4.01405 11.4378 3.91101 11.3557 3.83607 11.2336Z" fill="#68CCEB"/>
<path d="M5.40984 6.1469L4.59485 5.34597C4.4918 5.24292 4.36309 5.1914 4.20871 5.1914C4.05433 5.1914 3.92075 5.24761 3.80796 5.36002C3.70492 5.46306 3.6534 5.59421 3.6534 5.75346C3.6534 5.91271 3.70492 6.04386 3.80796 6.1469L5.01639 7.35534C5.12881 7.46775 5.25995 7.52395 5.40984 7.52395C5.55972 7.52395 5.69087 7.46775 5.80328 7.35534L8.19204 4.96658C8.30445 4.85416 8.35822 4.72302 8.35335 4.57313C8.34848 4.42325 8.29471 4.2921 8.19204 4.17969C8.07963 4.06728 7.94623 4.00882 7.79185 4.00433C7.63747 3.99983 7.50389 4.0536 7.3911 4.16564L5.40984 6.1469Z" fill="white"/>
</g>
<defs>
<clipPath id="clip0_441_1178">
<rect width="12" height="12" fill="white"/>
</clipPath>
</defs>
</svg>
