<svg width="36" height="36" viewBox="0 0 36 36" fill="none" xmlns="http://www.w3.org/2000/svg">
<path d="M0 17.8276C0 7.98169 7.98169 0 17.8276 0V0C27.6735 0 35.6552 7.98169 35.6552 17.8276V17.8276C35.6552 27.6735 27.6735 35.6552 17.8276 35.6552V35.6552C7.98169 35.6552 0 27.6735 0 17.8276V17.8276Z" fill="#C4AB9E"/>
<path d="M17.0445 22.8276H13.8965V13.1034H17.1442C18.0969 13.1034 18.9152 13.2981 19.5989 13.6875C20.2827 14.0736 20.8065 14.6292 21.1706 15.354C21.5377 16.0758 21.7213 16.9415 21.7213 17.9513C21.7213 18.9642 21.5362 19.8347 21.1658 20.5627C20.7986 21.2908 20.2668 21.851 19.5704 22.2436C18.8741 22.6329 18.0321 22.8276 17.0445 22.8276ZM15.3636 21.5456H16.9637C17.7044 21.5456 18.3201 21.4063 18.8107 21.1278C19.3014 20.846 19.6686 20.4393 19.9123 19.9075C20.156 19.3725 20.2779 18.7205 20.2779 17.9513C20.2779 17.1884 20.156 16.5411 19.9123 16.0093C19.6717 15.4775 19.3125 15.0739 18.8345 14.7985C18.3565 14.5231 17.763 14.3854 17.0539 14.3854H15.3636V21.5456Z" fill="white"/>
</svg>
