<svg width="22" height="22" viewBox="0 0 22 22" fill="none" xmlns="http://www.w3.org/2000/svg">
<path d="M0 11C0 4.92487 4.92487 0 11 0V0C17.0751 0 22 4.92487 22 11V11C22 17.0751 17.0751 22 11 22V22C4.92487 22 0 17.0751 0 11V11Z" fill="#C4AB9E"/>
<path d="M8.26904 14V7H10.8325C11.3293 7 11.7406 7.08203 12.0664 7.24609C12.3923 7.40788 12.6361 7.62777 12.7979 7.90576C12.9596 8.18148 13.0405 8.49251 13.0405 8.83887C13.0405 9.13053 12.987 9.37663 12.8799 9.57715C12.7728 9.77539 12.6292 9.9349 12.4492 10.0557C12.2715 10.1742 12.0755 10.2607 11.8613 10.3154V10.3838C12.0938 10.3952 12.3205 10.4704 12.5415 10.6094C12.7648 10.7461 12.9494 10.9409 13.0952 11.1938C13.241 11.4468 13.314 11.7544 13.314 12.1167C13.314 12.4744 13.2297 12.7957 13.061 13.0806C12.8947 13.3631 12.6372 13.5876 12.2886 13.7539C11.9399 13.918 11.4945 14 10.9521 14H8.26904ZM9.3252 13.0942H10.8496C11.3555 13.0942 11.7178 12.9963 11.9365 12.8003C12.1553 12.6043 12.2646 12.3594 12.2646 12.0654C12.2646 11.8444 12.2088 11.6416 12.0972 11.457C11.9855 11.2725 11.826 11.1255 11.6187 11.0161C11.4136 10.9067 11.1698 10.8521 10.8872 10.8521H9.3252V13.0942ZM9.3252 10.0283H10.7402C10.9772 10.0283 11.1903 9.98275 11.3794 9.8916C11.5708 9.80046 11.7223 9.67285 11.834 9.50879C11.9479 9.34245 12.0049 9.14648 12.0049 8.9209C12.0049 8.63151 11.9035 8.38883 11.7007 8.19287C11.4979 7.99691 11.1868 7.89893 10.7676 7.89893H9.3252V10.0283Z" fill="white"/>
</svg>
