<svg width="36" height="36" viewBox="0 0 36 36" fill="none" xmlns="http://www.w3.org/2000/svg">
<path d="M0 17.8276C0 7.98169 7.98169 0 17.8276 0V0C27.6735 0 35.6552 7.98169 35.6552 17.8276V17.8276C35.6552 27.6735 27.6735 35.6552 17.8276 35.6552V35.6552C7.98169 35.6552 0 27.6735 0 17.8276V17.8276Z" fill="#C4AB9E"/>
<path d="M18.6759 13.1034H20.1384V19.9977C20.1384 20.6213 20.0149 21.1547 19.768 21.5978C19.5243 22.041 19.1808 22.3797 18.7377 22.6139C18.2945 22.845 17.7754 22.9605 17.1803 22.9605C16.6327 22.9605 16.1405 22.8608 15.7036 22.6614C15.27 22.462 14.9265 22.1723 14.6733 21.7925C14.4232 21.4095 14.2982 20.9442 14.2982 20.3965H15.7559C15.7559 20.6656 15.8176 20.8983 15.941 21.0945C16.0677 21.2908 16.2402 21.4443 16.4586 21.5551C16.6802 21.6627 16.9334 21.7165 17.2183 21.7165C17.5285 21.7165 17.7912 21.6516 18.0065 21.5218C18.2249 21.3889 18.3911 21.1942 18.505 20.9378C18.619 20.6814 18.6759 20.3681 18.6759 19.9977V13.1034Z" fill="white"/>
</svg>
