<svg width="36" height="36" viewBox="0 0 36 36" fill="none" xmlns="http://www.w3.org/2000/svg">
<path d="M0 17.8276C0 7.98169 7.98169 0 17.8276 0V0C27.6735 0 35.6552 7.98169 35.6552 17.8276V17.8276C35.6552 27.6735 27.6735 35.6552 17.8276 35.6552V35.6552C7.98169 35.6552 0 27.6735 0 17.8276V17.8276Z" fill="#C4AB9E"/>
<path d="M21.973 16.2657H20.4916C20.4346 15.9491 20.3286 15.6706 20.1735 15.43C20.0184 15.1894 19.8284 14.9853 19.6037 14.8175C19.3789 14.6497 19.1273 14.5231 18.8487 14.4377C18.5733 14.3522 18.2805 14.3095 17.9703 14.3095C17.4101 14.3095 16.9083 14.4503 16.4652 14.732C16.0252 15.0138 15.677 15.4268 15.4206 15.9713C15.1674 16.5157 15.0407 17.1805 15.0407 17.9655C15.0407 18.7569 15.1674 19.4248 15.4206 19.9692C15.677 20.5137 16.0268 20.9252 16.4699 21.2037C16.9131 21.4823 17.4116 21.6216 17.9656 21.6216C18.2726 21.6216 18.5638 21.5804 18.8392 21.4981C19.1178 21.4126 19.3694 21.2876 19.5942 21.123C19.8189 20.9584 20.0089 20.7574 20.164 20.52C20.3222 20.2794 20.4314 20.004 20.4916 19.6938L21.973 19.6986C21.8939 20.1765 21.7403 20.6165 21.5124 21.0185C21.2877 21.4174 20.998 21.7624 20.6435 22.0536C20.2922 22.3417 19.8902 22.5648 19.4375 22.7231C18.9848 22.8814 18.491 22.9605 17.9561 22.9605C17.1141 22.9605 16.3639 22.7611 15.7055 22.3623C15.0471 21.9603 14.5279 21.3857 14.1481 20.6387C13.7714 19.8917 13.5831 19.0006 13.5831 17.9655C13.5831 16.9273 13.773 16.0362 14.1528 15.2923C14.5327 14.5453 15.0518 13.9723 15.7102 13.5735C16.3686 13.1715 17.1173 12.9705 17.9561 12.9705C18.4721 12.9705 18.9532 13.0449 19.3995 13.1937C19.849 13.3393 20.2526 13.5545 20.6103 13.8394C20.968 14.1211 21.2639 14.4661 21.4982 14.8745C21.7324 15.2797 21.8907 15.7434 21.973 16.2657Z" fill="white"/>
</svg>
