<svg width="36" height="36" viewBox="0 0 36 36" fill="none" xmlns="http://www.w3.org/2000/svg">
<path d="M0 17.8276C0 7.98169 7.98169 0 17.8276 0V0C27.6735 0 35.6552 7.98169 35.6552 17.8276V17.8276C35.6552 27.6735 27.6735 35.6552 17.8276 35.6552V35.6552C7.98169 35.6552 0 27.6735 0 17.8276V17.8276Z" fill="#C4AB9E"/>
<path d="M14.3965 22.8276V13.1034H17.9575C18.6476 13.1034 19.219 13.2174 19.6716 13.4453C20.1243 13.67 20.463 13.9755 20.6877 14.3617C20.9124 14.7447 21.0248 15.1768 21.0248 15.6579C21.0248 16.0631 20.9504 16.405 20.8017 16.6835C20.6529 16.9589 20.4535 17.1805 20.2034 17.3483C19.9565 17.5129 19.6843 17.6331 19.3867 17.7091V17.8041C19.7096 17.8199 20.0245 17.9244 20.3316 18.1174C20.6418 18.3074 20.8982 18.578 21.1008 18.9294C21.3034 19.2807 21.4047 19.7081 21.4047 20.2114C21.4047 20.7083 21.2875 21.1547 21.0533 21.5503C20.8222 21.9428 20.4645 22.2546 19.9802 22.4857C19.4959 22.7136 18.8771 22.8276 18.1237 22.8276H14.3965ZM15.8636 21.5693H17.9813C18.684 21.5693 19.1873 21.4332 19.4912 21.161C19.7951 20.8888 19.947 20.5485 19.947 20.1401C19.947 19.8331 19.8694 19.5514 19.7143 19.295C19.5592 19.0386 19.3377 18.8344 19.0496 18.6825C18.7647 18.5305 18.426 18.4546 18.0335 18.4546H15.8636V21.5693ZM15.8636 17.3103H17.8293C18.1585 17.3103 18.4545 17.247 18.7172 17.1203C18.9831 16.9937 19.1936 16.8165 19.3487 16.5886C19.507 16.3575 19.5861 16.0853 19.5861 15.7719C19.5861 15.3699 19.4453 15.0328 19.1636 14.7605C18.8818 14.4883 18.4498 14.3522 17.8673 14.3522H15.8636V17.3103Z" fill="white"/>
</svg>
